PathFileType	4	(X/Y/Z)	/home/nbianco/projects/addbio/data/HamnerRunning2013/Processed/subject08//results/MarkerData/run500.trc
DataRate	CameraRate	NumFrames	NumMarkers	Units	OrigDataRate	OrigDataStartFrame	OrigNumFrames
100	100	8	42	m	100	115	184
Frame#	Time	C7			CLAV			LACR			LASI			LCAL			LFAradius			LFAsuperior			LFAulna			LLEL			LMEL			LMT5			LPSI			LTB1			LTB2			LTB3			LTH1			LTH2			LTH3			LTOE			LUA1			LUA2			LUA3			RACR			RASI			RCAL			RFAradius			RFAsuperior			RFAulna			RLEL			RMEL			RMT5			RPSI			RTB1			RTB2			RTB3			RTH1			RTH2			RTH3			RTOE			RUA1			RUA2			RUA3		
		X1	Y1	Z1	X2	Y2	Z2	X3	Y3	Z3	X4	Y4	Z4	X5	Y5	Z5	X6	Y6	Z6	X7	Y7	Z7	X8	Y8	Z8	X9	Y9	Z9	X10	Y10	Z10	X11	Y11	Z11	X12	Y12	Z12	X13	Y13	Z13	X14	Y14	Z14	X15	Y15	Z15	X16	Y16	Z16	X17	Y17	Z17	X18	Y18	Z18	X19	Y19	Z19	X20	Y20	Z20	X21	Y21	Z21	X22	Y22	Z22	X23	Y23	Z23	X24	Y24	Z24	X25	Y25	Z25	X26	Y26	Z26	X27	Y27	Z27	X28	Y28	Z28	X29	Y29	Z29	X30	Y30	Z30	X31	Y31	Z31	X32	Y32	Z32	X33	Y33	Z33	X34	Y34	Z34	X35	Y35	Z35	X36	Y36	Z36	X37	Y37	Z37	X38	Y38	Z38	X39	Y39	Z39	X40	Y40	Z40	X41	Y41	Z41	X42	Y42	Z42

116	1.54	0.67726	1.58086	-0.384198	0.795682	1.51527	-0.3009	0.791313	1.55161	-0.500986	0.751307	1.00833	-0.465514	0.0462708	0.412063	-0.390931	0.97188	1.31006	-0.434124	0.951254	1.26367	-0.581539	0.998707	1.24736	-0.444324	0.877671	1.26805	-0.68289	0.824297	1.21398	-0.657807	0.0483879	0.204157	-0.465541	0.582809	1.11712	-0.398102	0.391806	0.487081	-0.431789	0.292182	0.488372	-0.491653	0.21831	0.375136	-0.421209	0.640946	0.909281	-0.526407	0.644832	0.777341	-0.49949	0.502125	0.696723	-0.495464	0.103834	0.187212	-0.394718	0.813812	1.45428	-0.602335	0.766722	1.36274	-0.62797	0.840718	1.34617	-0.653105	0.683537	1.55213	-0.187724	0.744362	1.04868	-0.221722	0.794107	0.203268	-0.287977	0.537401	1.07034	-0.0598809	0.43864	1.25208	-0.0510217	0.468108	1.05865	-0.0542205	0.433482	1.33164	-0.0711122	0.420193	1.32123	-0.149069	0.990624	0.133583	-0.201405	0.575147	1.11951	-0.313944	0.970648	0.522583	-0.237399	0.91078	0.424488	-0.192878	0.931278	0.325044	-0.256012	0.728853	0.940247	-0.15485	0.871383	0.867006	-0.16701	0.860524	0.741706	-0.180854	1.02463	0.16971	-0.282246	0.579768	1.4904	-0.12167	0.497884	1.4473	-0.167951	0.496837	1.40751	-0.095853
117	1.55	0.677766	1.58338	-0.381649	0.795968	1.51683	-0.299118	0.791708	1.55502	-0.497981	0.753409	1.01107	-0.466383	0.0387178	0.449857	-0.388802	0.967529	1.3063	-0.42894	0.948854	1.26362	-0.578283	0.993138	1.24337	-0.440445	0.877371	1.27172	-0.68074	0.822143	1.21856	-0.657491	0.0184717	0.241815	-0.461841	0.584476	1.11894	-0.397229	0.387383	0.493001	-0.434365	0.287345	0.503412	-0.492705	0.205299	0.397835	-0.421216	0.643697	0.911601	-0.527028	0.647238	0.779287	-0.501053	0.505189	0.698005	-0.497229	0.0736912	0.219679	-0.392091	0.813933	1.4583	-0.60025	0.766227	1.36702	-0.626697	0.840458	1.35051	-0.651738	0.683748	1.5533	-0.185496	0.745358	1.04943	-0.223076	0.834465	0.176605	-0.289473	0.537425	1.07141	-0.0586066	0.437554	1.25288	-0.0522651	0.467969	1.05928	-0.055594	0.432409	1.3326	-0.072661	0.420532	1.32176	-0.150722	1.03689	0.126176	-0.203792	0.576741	1.12047	-0.312824	0.971153	0.513089	-0.236981	0.923572	0.408759	-0.193149	0.956077	0.312502	-0.256143	0.728295	0.93821	-0.154538	0.862892	0.858028	-0.165594	0.850559	0.731303	-0.181487	1.0668	0.168379	-0.282623	0.578963	1.4919	-0.119924	0.498039	1.448	-0.169313	0.495665	1.40853	-0.0972207
118	1.56	0.678121	1.58521	-0.378691	0.796084	1.51715	-0.297335	0.791413	1.55734	-0.49537	0.755831	1.01289	-0.467203	0.0361306	0.487583	-0.385105	0.963898	1.29739	-0.42513	0.944759	1.25974	-0.576217	0.986421	1.23403	-0.43857	0.874635	1.27372	-0.679046	0.817403	1.22189	-0.657908	-0.00637416	0.282812	-0.459907	0.58596	1.11934	-0.396557	0.385488	0.497636	-0.436624	0.28585	0.5179	-0.493233	0.19656	0.421099	-0.420916	0.647001	0.912879	-0.528097	0.650345	0.780235	-0.503022	0.50925	0.698028	-0.498825	0.0485326	0.254538	-0.392325	0.812633	1.46109	-0.59845	0.763985	1.37052	-0.625379	0.838381	1.35337	-0.650454	0.684335	1.55328	-0.182941	0.74645	1.04881	-0.224543	0.869279	0.155675	-0.290137	0.53893	1.07025	-0.0570572	0.437977	1.25152	-0.05258	0.469458	1.05771	-0.0560856	0.432752	1.33141	-0.0732839	0.422269	1.32009	-0.151385	1.07525	0.122929	-0.204486	0.578032	1.11966	-0.31195	0.968798	0.503478	-0.237352	0.93224	0.395218	-0.193405	0.975603	0.302715	-0.255523	0.727751	0.934965	-0.15423	0.852184	0.846134	-0.164326	0.837946	0.718511	-0.182125	1.10094	0.170588	-0.281796	0.578647	1.49145	-0.118238	0.498899	1.44652	-0.170262	0.495638	1.4077	-0.0979965
119	1.57	0.678184	1.58596	-0.375285	0.796169	1.51607	-0.295579	0.790595	1.55838	-0.493083	0.758416	1.0137	-0.467938	0.0381004	0.52406	-0.380424	0.960384	1.28371	-0.423048	0.938903	1.25253	-0.575664	0.978657	1.21992	-0.43913	0.8695	1.27411	-0.677968	0.810151	1.224	-0.658881	-0.0242881	0.326321	-0.460286	0.587302	1.11824	-0.396405	0.386035	0.500965	-0.438576	0.287718	0.531457	-0.493217	0.191813	0.444038	-0.420207	0.65062	0.913057	-0.529483	0.654331	0.779935	-0.505243	0.514785	0.696409	-0.500596	0.0292751	0.291493	-0.395231	0.810235	1.46262	-0.596806	0.760126	1.37311	-0.623837	0.834511	1.35473	-0.649371	0.685229	1.55186	-0.180014	0.747463	1.04691	-0.225699	0.895489	0.140805	-0.29069	0.542104	1.06685	-0.0551352	0.439902	1.24779	-0.0517728	0.4727	1.0538	-0.0554997	0.434371	1.3279	-0.0727709	0.425221	1.31604	-0.150823	1.10236	0.121893	-0.202855	0.578843	1.11711	-0.31186	0.964326	0.49463	-0.237975	0.935902	0.384422	-0.193477	0.988741	0.295614	-0.254081	0.726601	0.929236	-0.153683	0.840921	0.831446	-0.16392	0.824136	0.704481	-0.182882	1.125	0.173705	-0.278896	0.578759	1.48898	-0.116475	0.500339	1.44301	-0.170519	0.496632	1.40482	-0.0980319
120	1.58	0.677889	1.58522	-0.371526	0.796305	1.51363	-0.293874	0.789478	1.55802	-0.490853	0.760935	1.01344	-0.468589	0.0448099	0.558617	-0.375833	0.956226	1.2658	-0.422928	0.931338	1.24267	-0.576903	0.970029	1.20182	-0.442527	0.862153	1.27298	-0.677564	0.800462	1.22502	-0.659948	-0.0346059	0.370512	-0.462321	0.588463	1.11566	-0.396757	0.388996	0.503003	-0.440424	0.293041	0.543691	-0.493072	0.190576	0.465667	-0.419445	0.654319	0.911915	-0.53076	0.659251	0.778086	-0.507338	0.521973	0.692772	-0.50263	0.0161571	0.329174	-0.399315	0.806858	1.46278	-0.595305	0.754834	1.37456	-0.622114	0.828942	1.35466	-0.648744	0.686281	1.54884	-0.176751	0.748235	1.0438	-0.226169	0.911091	0.130928	-0.292288	0.547161	1.06118	-0.0528147	0.443406	1.24158	-0.0497043	0.477862	1.04752	-0.0538126	0.437218	1.3219	-0.0709162	0.429047	1.3095	-0.14887	1.11625	0.119988	-0.199126	0.579202	1.11313	-0.312673	0.95848	0.486846	-0.238438	0.934694	0.375761	-0.193711	0.995041	0.290102	-0.252453	0.724582	0.920775	-0.152836	0.830641	0.815344	-0.164402	0.811231	0.690903	-0.183771	1.13815	0.174436	-0.273586	0.57935	1.48461	-0.114108	0.50225	1.43742	-0.169864	0.498505	1.39966	-0.0971493
121	1.59	0.677302	1.58277	-0.367607	0.796489	1.51	-0.292117	0.788208	1.55621	-0.488464	0.763127	1.012	-0.469079	0.056535	0.5909	-0.372452	0.950855	1.24431	-0.424935	0.922143	1.23081	-0.579956	0.960589	1.18057	-0.448912	0.852875	1.27044	-0.677762	0.788631	1.22502	-0.660773	-0.0374376	0.413136	-0.464832	0.589286	1.1117	-0.397422	0.394431	0.503742	-0.442325	0.30195	0.554185	-0.493383	0.192642	0.485354	-0.41913	0.658013	0.909096	-0.531615	0.665084	0.774546	-0.508943	0.530599	0.68697	-0.504788	0.00935999	0.365842	-0.4029	0.80246	1.46152	-0.594023	0.748338	1.37471	-0.620411	0.821904	1.35323	-0.648692	0.687374	1.54417	-0.173288	0.748524	1.03923	-0.225954	0.915728	0.12381	-0.295536	0.554286	1.05325	-0.0502219	0.448578	1.23289	-0.0463497	0.485123	1.03898	-0.0511377	0.441343	1.31339	-0.0676044	0.433479	1.30047	-0.145452	1.11733	0.114101	-0.19486	0.579238	1.10822	-0.314025	0.951749	0.479666	-0.238899	0.929581	0.367987	-0.194619	0.994735	0.284482	-0.251586	0.721687	0.910717	-0.151966	0.822158	0.800473	-0.164781	0.800997	0.679454	-0.184888	1.14099	0.170348	-0.267172	0.58062	1.47852	-0.1106	0.504559	1.42955	-0.168077	0.501206	1.3921	-0.0950604
122	1.6	0.676609	1.57862	-0.363717	0.796687	1.50533	-0.290204	0.786824	1.55302	-0.486039	0.764786	1.00934	-0.469268	0.0732803	0.620655	-0.371041	0.944001	1.21987	-0.429202	0.911369	1.21749	-0.584576	0.950065	1.15701	-0.458007	0.841988	1.26666	-0.678414	0.775251	1.22407	-0.661371	-0.0331346	0.452258	-0.466957	0.58961	1.10658	-0.398219	0.402507	0.503139	-0.444316	0.31448	0.562493	-0.494467	0.198417	0.502964	-0.419415	0.661816	0.904388	-0.532117	0.671855	0.769487	-0.510014	0.54041	0.679136	-0.506987	0.00917615	0.400214	-0.405092	0.797068	1.45887	-0.593007	0.740883	1.37352	-0.618861	0.813719	1.35046	-0.649016	0.688492	1.53791	-0.169799	0.748138	1.03298	-0.225415	0.910238	0.117165	-0.299723	0.563603	1.04326	-0.0475479	0.455438	1.22187	-0.0418232	0.494646	1.02841	-0.0476671	0.446808	1.30244	-0.0628837	0.438495	1.28911	-0.140601	1.10805	0.102355	-0.192687	0.579061	1.10285	-0.315308	0.944242	0.472005	-0.239723	0.921517	0.35992	-0.19614	0.988463	0.277105	-0.251821	0.717933	0.900827	-0.151437	0.815693	0.789211	-0.163957	0.793911	0.670896	-0.186479	1.13488	0.16042	-0.26279	0.582756	1.47078	-0.105826	0.507196	1.41931	-0.164873	0.504827	1.38221	-0.0914882
123	1.61	0.676011	1.57305	-0.35996	0.796873	1.49972	-0.288199	0.785299	1.54862	-0.484032	0.765882	1.00552	-0.469064	0.0947803	0.647581	-0.371781	0.935548	1.19307	-0.435811	0.899057	1.20309	-0.59044	0.937911	1.13174	-0.469208	0.829812	1.26183	-0.679378	0.760999	1.22224	-0.661962	-0.0221413	0.486698	-0.468493	0.589475	1.1005	-0.399097	0.413474	0.501143	-0.446394	0.330515	0.568202	-0.49624	0.208753	0.518582	-0.420048	0.665903	0.898012	-0.532583	0.679621	0.763312	-0.510823	0.551441	0.669583	-0.509352	0.0156616	0.431654	-0.40594	0.79092	1.4549	-0.592215	0.732693	1.37113	-0.617418	0.804678	1.34636	-0.64929	0.689708	1.53032	-0.1664	0.747251	1.02552	-0.22487	0.895484	0.109818	-0.303394	0.575178	1.03167	-0.0448704	0.463947	1.20876	-0.0363456	0.506553	1.01615	-0.043603	0.453622	1.28929	-0.0569675	0.444261	1.27571	-0.134483	1.09096	0.0855087	-0.19464	0.578805	1.09721	-0.316141	0.935769	0.462606	-0.240932	0.910881	0.350691	-0.197666	0.976798	0.266879	-0.252865	0.713525	0.892268	-0.151495	0.811367	0.781934	-0.162075	0.78911	0.664534	-0.188574	1.12084	0.144741	-0.263805	0.585771	1.46127	-0.100195	0.510095	1.40702	-0.159932	0.509525	1.37015	-0.0863926
